<svg width="15" height="13" viewBox="0 0 15 13" fill="none" xmlns="http://www.w3.org/2000/svg">
<g clip-path="url(#clip0_1_12)">
<path d="M14.2275 0.0387042L0.364197 5.38233C-0.138235 5.57574 -0.114893 6.29504 0.398626 6.45631L3.66472 7.47888L5.01388 11.717C5.15334 12.1546 5.70421 12.2925 6.03274 11.9711L7.96311 10.0826L11.6213 12.8827C11.9534 13.1369 12.4371 12.9569 12.5223 12.5467L14.9878 0.684965C15.0794 0.243801 14.6476 -0.123737 14.2275 0.0381199V0.0387042ZM12.4313 2.59161C12.4313 2.59161 7.2862 7.3217 5.97906 8.52365C5.92362 8.57448 5.88919 8.64402 5.88219 8.71939L5.67328 10.9439C5.66453 11.0444 5.51922 11.0666 5.48421 10.9673C5.41944 10.785 4.7151 8.3168 4.49219 7.5525C4.45367 7.42103 4.50794 7.28079 4.62348 7.20834L12.3035 2.43267C12.3975 2.36606 12.5288 2.49227 12.4319 2.59219L12.4313 2.59161Z" fill="white"/>
</g>
<defs>
<clipPath id="clip0_1_12">
<rect width="15" height="13" fill="white"/>
</clipPath>
</defs>
</svg>
